<?xml version="1.0" encoding="UTF-8" standalone="no"?> <svg xmlns="http://www.w3.org/2000/svg" xmlns:xlink="http://www.w3.org/1999/xlink" xmlns:serif="http://www.serif.com/" width="100%" height="100%" viewBox="0 0 120 64" version="1.1" xml:space="preserve" style="fill-rule:evenodd;clip-rule:evenodd;stroke-miterlimit:3.864;"> <g id="Mesa-de-trabajo1" serif:id="Mesa de trabajo1" transform="matrix(1,0,0,1,-134.093,-182.828)"> <rect x="134.093" y="182.828" width="119.363" height="63.711" style="fill:none;"></rect> <g transform="matrix(1,0,0,1,68.366,92.9545)"> <g> <g transform="matrix(1,0,0,1,142.937,148.52)"> <path d="M0,-2.47L0,2.46L0.525,2.46L0.525,-0.996C0.943,-1.7 1.438,-2.052 2.009,-2.052C2.402,-2.052 2.716,-1.905 2.95,-1.61C3.184,-1.315 3.301,-0.895 3.301,-0.348L3.301,2.46L3.831,2.46L3.831,-0.9C4.07,-1.304 4.302,-1.597 4.526,-1.779C4.751,-1.961 5.015,-2.052 5.318,-2.052C5.724,-2.052 6.04,-1.899 6.265,-1.594C6.489,-1.288 6.602,-0.87 6.602,-0.337L6.602,2.46L7.127,2.46L7.127,-0.568C7.127,-1.171 6.97,-1.656 6.656,-2.02C6.342,-2.384 5.93,-2.566 5.42,-2.566C4.742,-2.566 4.172,-2.172 3.708,-1.382C3.401,-2.172 2.87,-2.566 2.117,-2.566C1.47,-2.566 0.947,-2.245 0.547,-1.602L0.525,-1.602L0.525,-2.47L0,-2.47ZM9.258,-1.832C8.777,-1.343 8.537,-0.732 8.537,0C8.537,0.729 8.777,1.337 9.258,1.825C9.738,2.312 10.335,2.556 11.05,2.556C11.764,2.556 12.36,2.312 12.837,1.825C13.314,1.337 13.552,0.729 13.552,0C13.552,-0.732 13.314,-1.343 12.837,-1.832C12.36,-2.322 11.764,-2.566 11.05,-2.566C10.335,-2.566 9.738,-2.322 9.258,-1.832M9.654,1.46C9.281,1.073 9.094,0.586 9.094,0C9.094,-0.589 9.281,-1.079 9.654,-1.468C10.027,-1.857 10.493,-2.052 11.05,-2.052C11.6,-2.052 12.062,-1.856 12.435,-1.463C12.808,-1.07 12.995,-0.582 12.995,0C12.995,0.586 12.809,1.073 12.438,1.46C12.066,1.848 11.604,2.042 11.05,2.042C10.493,2.042 10.027,1.848 9.654,1.46M16.372,-2.566C15.929,-2.566 15.553,-2.435 15.244,-2.173C14.935,-1.91 14.781,-1.591 14.781,-1.216C14.781,-0.952 14.864,-0.712 15.03,-0.495C15.196,-0.279 15.558,-0.06 16.117,0.161C16.676,0.383 17.019,0.566 17.146,0.711C17.273,0.856 17.336,1.014 17.336,1.185C17.336,1.435 17.239,1.64 17.044,1.801C16.85,1.961 16.6,2.042 16.297,2.042C15.847,2.042 15.331,1.892 14.748,1.592L14.748,2.106C15.238,2.406 15.731,2.556 16.227,2.556C16.684,2.556 17.068,2.425 17.379,2.162C17.69,1.9 17.845,1.577 17.845,1.195C17.845,0.909 17.76,0.65 17.588,0.418C17.417,0.186 17.052,-0.038 16.493,-0.254C15.935,-0.47 15.594,-0.648 15.47,-0.788C15.346,-0.929 15.284,-1.083 15.284,-1.251C15.284,-1.486 15.386,-1.684 15.59,-1.844C15.793,-2.004 16.043,-2.084 16.34,-2.084C16.74,-2.084 17.19,-1.916 17.69,-1.581L17.69,-2.149C17.215,-2.427 16.776,-2.566 16.372,-2.566M22.374,2.042C22.296,2.042 22.256,1.958 22.256,1.79L22.256,-1.28C22.256,-1.698 22.112,-2.017 21.822,-2.237C21.533,-2.457 21.165,-2.566 20.719,-2.566C20.215,-2.566 19.684,-2.391 19.127,-2.041L19.127,-1.5C19.667,-1.918 20.168,-2.127 20.633,-2.127C21.362,-2.127 21.726,-1.791 21.726,-1.12L21.726,-0.493C20.804,-0.446 20.095,-0.269 19.599,0.04C19.102,0.349 18.854,0.772 18.854,1.308C18.854,1.654 18.982,1.949 19.24,2.192C19.497,2.435 19.811,2.556 20.183,2.556C20.693,2.556 21.208,2.353 21.726,1.945C21.747,2.192 21.781,2.355 21.828,2.436C21.874,2.516 21.958,2.556 22.08,2.556C22.29,2.556 22.623,2.385 23.076,2.042L23.076,1.602C22.708,1.895 22.474,2.042 22.374,2.042M20.354,2.122C20.076,2.122 19.843,2.044 19.658,1.886C19.472,1.729 19.379,1.536 19.379,1.308C19.379,0.9 19.601,0.565 20.046,0.303C20.491,0.04 21.051,-0.078 21.726,-0.053L21.726,1.484C21.261,1.91 20.804,2.122 20.354,2.122M24.181,-4.126L24.712,-4.126L24.712,-5.026L24.181,-5.026L24.181,-4.126ZM24.181,2.46L24.712,2.46L24.712,-2.47L24.181,-2.47L24.181,2.46ZM28.603,-2.566C27.906,-2.566 27.334,-2.321 26.885,-1.83C26.437,-1.338 26.213,-0.705 26.213,0.07C26.213,0.813 26.435,1.413 26.88,1.87C27.325,2.328 27.908,2.556 28.63,2.556C29.051,2.556 29.508,2.472 30.001,2.304L30.001,1.758C29.537,1.947 29.094,2.042 28.672,2.042C28.094,2.042 27.632,1.859 27.287,1.492C26.943,1.126 26.77,0.632 26.77,0.011C26.77,-0.6 26.943,-1.096 27.287,-1.479C27.632,-1.861 28.079,-2.052 28.63,-2.052C29.012,-2.052 29.439,-1.948 29.91,-1.741L29.91,-2.325C29.421,-2.486 28.985,-2.566 28.603,-2.566M31.784,-1.832C31.304,-1.343 31.063,-0.732 31.063,0C31.063,0.729 31.304,1.337 31.784,1.825C32.264,2.312 32.862,2.556 33.576,2.556C34.291,2.556 34.887,2.312 35.363,1.825C35.84,1.337 36.079,0.729 36.079,0C36.079,-0.732 35.84,-1.343 35.363,-1.832C34.887,-2.322 34.291,-2.566 33.576,-2.566C32.862,-2.566 32.264,-2.322 31.784,-1.832M32.181,1.46C31.807,1.073 31.621,0.586 31.621,0C31.621,-0.589 31.807,-1.079 32.181,-1.468C32.554,-1.857 33.019,-2.052 33.576,-2.052C34.126,-2.052 34.588,-1.856 34.962,-1.463C35.335,-1.07 35.521,-0.582 35.521,0C35.521,0.586 35.336,1.073 34.964,1.46C34.593,1.848 34.13,2.042 33.576,2.042C33.019,2.042 32.554,1.848 32.181,1.46" style="fill-rule:nonzero;"></path> </g> <g transform="matrix(1,0,0,1,163.184,115.166)"> <path d="M0,24.229L0,4.723C0,4.723 -0.651,0.117 -5.653,-0.675L-5.653,18.392C-5.653,18.392 -5.732,23.936 -0.004,24.904L0,24.229Z" style="fill-rule:nonzero;stroke:black;stroke-width:0.89px;"></path> </g> <g transform="matrix(1,0,0,1,178.117,115.166)"> <path d="M0,24.229L0,4.722C0,4.722 -0.651,0.116 -5.653,-0.675L-5.653,18.392C-5.653,18.392 -5.983,23.848 -0.004,24.904L0,24.229Z" style="fill-rule:nonzero;stroke:black;stroke-width:0.89px;"></path> </g> <g transform="matrix(1,0,0,1,95.6416,132.21)"> <path d="M0,-9.857L0,1.349C0,1.349 0.327,6.805 -5.61,7.861L-5.614,7.186L-5.614,-12.32C-5.614,-12.32 -4.968,-16.926 0,-17.718L0,-10.326L0.852,-10.326C0.852,-10.326 7.506,-10.15 7.506,-3.462L7.506,7.186L7.502,7.861C1.565,6.805 1.892,1.349 1.892,1.349L1.892,-8.508C1.892,-8.508 1.881,-10.326 0,-9.857Z" style="fill-rule:nonzero;stroke:black;stroke-width:0.89px;"></path> </g> <g transform="matrix(0,1,1,0,107.927,114.702)"> <path d="M2.988,-2.988C1.338,-2.988 0.001,-1.65 0.001,0C0.001,1.65 1.338,2.988 2.988,2.988C4.639,2.988 5.975,1.65 5.975,0C5.975,-1.65 4.639,-2.988 2.988,-2.988" style="fill-rule:nonzero;"></path> </g> <g transform="matrix(0,1,1,0,107.927,114.702)"> <ellipse cx="2.988" cy="0" rx="2.987" ry="2.988" style="fill:none;stroke:black;stroke-width:0.89px;"></ellipse> </g> <g transform="matrix(1,0,0,1,110.743,129.22)"> <path d="M0,3.551L0,-1.928C0,-1.928 -0.651,-6.539 -5.654,-7.333L-5.654,4.364C-5.654,4.364 -5.983,9.827 -0.004,10.884L0,3.551Z" style="fill-rule:nonzero;stroke:black;stroke-width:0.89px;"></path> </g> <g transform="matrix(1,0,0,1,119.86,132.817)"> <path d="M0,-3.321C0.588,-3.145 0.558,-2.352 0.558,-2.352L0.558,5.573C0.558,6.776 -0.264,6.982 -0.529,6.982C-1.499,6.982 -1.616,5.838 -1.616,5.838C-1.616,5.838 -1.587,4.488 -1.587,4.106C-1.587,-1.589 -4.938,-1.295 -4.938,-1.295L-6.907,-1.295C-6.907,-1.295 -7.061,-1.502 -7.083,-1.237C-7.788,7.011 -0.881,7.273 -0.5,7.246C6.201,6.776 6.113,1.199 6.113,0.906C6.113,-2.851 1.969,-3.409 1.969,-3.409L-6.495,-3.409C-6.495,-3.409 -7.23,-3.233 -7.23,-3.967C-7.23,-4.377 -7.406,-9.779 -1.881,-10.542C-1.502,-10.594 3.027,-10.542 3.027,-10.542M-0.97,-3.409C-0.97,-3.409 -1.675,-3.585 -1.675,-4.495L-1.675,-9.133C-1.675,-9.133 -1.646,-10.219 -0.705,-10.483" style="fill:none;fill-rule:nonzero;stroke:black;stroke-width:0.89px;"></path> </g> <g transform="matrix(0,1,1,0,123.226,122.305)"> <path d="M2.9,-2.899C1.298,-2.899 -0.001,-1.601 -0.001,0.001C-0.001,1.602 1.298,2.9 2.9,2.9C4.501,2.9 5.8,1.602 5.8,0.001C5.8,-1.601 4.501,-2.899 2.9,-2.899" style="fill-rule:nonzero;"></path> </g> <g transform="matrix(0,1,1,0,123.226,122.305)"> <ellipse cx="2.9" cy="0.001" rx="2.901" ry="2.9" style="fill:none;stroke:black;stroke-width:0.89px;"></ellipse> </g> <g transform="matrix(1,0,0,1,133.596,132.498)"> <path d="M0,-10.441C7.055,-10.441 7.084,-4.399 7.084,-4.399L7.084,1.114C7.084,4.677 4.189,7.565 0.617,7.565C-2.954,7.565 -5.861,4.677 -5.861,1.114L-5.861,-12.61C-5.861,-12.61 -5.215,-17.215 -0.247,-18.006L-0.247,6.07C-0.247,6.653 0.209,7.125 0.794,7.125C1.378,7.125 1.852,6.653 1.852,6.07L1.852,-8.476C1.852,-8.476 1.646,-10.353 -0.177,-10.353C-0.5,-10.353 -0.197,-10.441 0,-10.441" style="fill-rule:nonzero;"></path> </g> <g transform="matrix(1,0,0,1,133.596,132.498)"> <path d="M0,-10.441C7.055,-10.441 7.084,-4.399 7.084,-4.399L7.084,1.114C7.084,4.677 4.189,7.565 0.617,7.565C-2.954,7.565 -5.861,4.677 -5.861,1.114L-5.861,-12.61C-5.861,-12.61 -5.215,-17.215 -0.247,-18.006L-0.247,6.07C-0.247,6.653 0.209,7.125 0.794,7.125C1.378,7.125 1.852,6.653 1.852,6.07L1.852,-8.476C1.852,-8.476 1.646,-10.353 -0.177,-10.353C-0.5,-10.353 -0.197,-10.441 0,-10.441Z" style="fill:none;fill-rule:nonzero;stroke:black;stroke-width:0.89px;"></path> </g> <g transform="matrix(0,1,1,0,167.752,114.702)"> <path d="M2.988,-2.988C1.338,-2.988 0.001,-1.65 0.001,0C0.001,1.65 1.338,2.988 2.988,2.988C4.639,2.988 5.975,1.65 5.975,0C5.975,-1.65 4.639,-2.988 2.988,-2.988" style="fill-rule:nonzero;"></path> </g> <g transform="matrix(0,1,1,0,167.752,114.702)"> <ellipse cx="2.988" cy="0" rx="2.987" ry="2.988" style="fill:none;stroke:black;stroke-width:0.89px;"></ellipse> </g> <g transform="matrix(1,0,0,1,170.568,129.22)"> <path d="M0,3.551L0,-1.928C0,-1.928 -0.651,-6.539 -5.653,-7.333L-5.653,4.364C-5.653,4.364 -5.689,9.911 -0.004,10.884L0,3.551Z" style="fill-rule:nonzero;stroke:black;stroke-width:0.89px;"></path> </g> <g transform="matrix(1,0,0,1,155.709,123.068)"> <path d="M0,16.885C-5.35,15.916 -5.35,10.69 -5.35,10.69L-5.35,0.587C-5.35,-0.077 -5.89,-0.616 -6.555,-0.616C-7.221,-0.616 -7.761,-0.077 -7.761,0.587L-7.761,14.829C-7.761,14.829 -8.025,17.355 -5.38,16.738L-5.262,16.738C-12.905,17.883 -12.847,10.778 -12.847,10.778L-12.847,5.389C-12.847,1.862 -9.984,-0.998 -6.453,-0.998C-2.921,-0.998 -0.059,1.862 -0.059,5.389L0,16.885Z" style="fill-rule:nonzero;stroke:black;stroke-width:0.89px;"></path> </g> <g transform="matrix(1,0,0,1,178.949,128.508)"> <path d="M0,-6.199L0,0L5.117,0C4.883,-5.614 0,-6.199 0,-6.199" style="fill-rule:nonzero;"></path> </g> <g transform="matrix(1,0,0,1,112.629,122.782)"> <path d="M0,6.106L0.038,4.929L0.363,3.638L1.084,2.132L2.094,0.949L3.861,-0.091L5.405,-0.508L6.241,-0.414L5.736,0.267L5.628,0.733L5.7,5.753L5.953,6.579L0.615,6.614L0.182,6.579L0,6.106Z" style="fill-rule:nonzero;stroke:black;stroke-width:0.89px;"></path> </g> <g transform="matrix(1,0,0,1,120.32,139.961)"> <path d="M0,-10.526L1.467,-10.581L2.705,-10.133L3.678,-9.704L4.436,-9.097L5.013,-8.31L5.373,-7.559L5.59,-6.737L5.626,-5.771L5.373,-4.628L5.013,-3.769L4.544,-2.733L4.147,-2.161L3.39,-1.339L2.524,-0.839L1.587,-0.445L0.433,-0.088L-0.433,0.055L-0.829,-0.195L-0.505,-0.374L-0.18,-0.803L0.072,-1.339L0.072,-2.554L0,-9.883L-0.252,-10.419L0,-10.526Z" style="fill-rule:nonzero;stroke:black;stroke-width:0.89px;"></path> </g> <g transform="matrix(1,0,0,1,112.953,139.944)"> <path d="M0,-8.458L2.448,-8.414C2.448,-8.414 4.247,-7.591 4.463,-6.91C4.679,-6.23 5.039,-5.549 5.039,-5.549L5.255,-4.655L5.327,-3.258L5.327,-2.077L5.335,-1.294L5.471,-0.68L5.867,-0.214L5.939,-0.035L5.651,0C5.651,0 0.216,-0.251 -0.18,-6.874C-0.193,-7.092 -0.108,-8.163 -0.108,-8.163L0,-8.458Z" style="fill-rule:nonzero;stroke:black;stroke-width:0.89px;"></path> </g> <g transform="matrix(1,0,0,1,68.2728,127.306)"> <path d="M0,-11.749L10.164,-17.371L19.87,-11.624L19.87,-0.085L9.872,5.622L0,-0.21L0,-11.749Z" style="fill:rgb(104,151,188);fill-rule:nonzero;"></path> </g> <g transform="matrix(1,0,0,1,69.4253,131.785)"> <path d="M0,-13.12C0,-13.12 -0.128,-4.801 8.447,0C-3.39,-4.801 0,-13.12 0,-13.12" style="fill:white;fill-rule:nonzero;"></path> </g> <g transform="matrix(1,0,0,1,79.0614,109.497)"> <path d="M0,-11.748L10.164,-17.371L19.87,-11.623L19.87,-0.084L9.872,5.623L0,-0.209L0,-11.748Z" style="fill:rgb(0,82,135);fill-rule:nonzero;"></path> </g> <g transform="matrix(1,0,0,1,80.2139,113.976)"> <path d="M0,-13.12C0,-13.12 -0.128,-4.8 8.447,0C-3.39,-4.8 0,-13.12 0,-13.12" style="fill:white;fill-rule:nonzero;"></path> </g> </g> </g> </g> </svg> 