<?xml version="1.0" encoding="UTF-8"?>
<svg width="249px" height="51px" viewBox="0 0 249 51" version="1.1" xmlns="http://www.w3.org/2000/svg" xmlns:xlink="http://www.w3.org/1999/xlink">
    <!-- Generator: sketchtool 51.3 (57544) - http://www.bohemiancoding.com/sketch -->
    <title>50CD5831-534F-4B04-8DD5-8BB044F6CD1D@2x</title>
    <desc>Created with sketchtool.</desc>
    <defs></defs>
    <g id="Page-1" stroke="none" stroke-width="1" fill="none" fill-rule="evenodd">
        <g id="Home-Axe-1" transform="translate(-30.000000, -21.000000)" fill-rule="nonzero"> 
            <g id="Menu-Dark">
                <g id="Logo_Seamaid" transform="translate(30.000000, 21.000000)">
                    <path d="M45.4851986,11.3631579 C45.3054152,11.0052632 46.1144404,10.8263158 46.9234657,10.1105263 C48.7212996,8.5 49.0808664,7.33684211 49.0808664,6.26315789 C49.0808664,3.93684211 46.833574,2.77368421 42.2490975,2.77368421 C40.2714801,2.77368421 37.7545126,3.13157895 34.5184116,3.84736842 C31.3722022,4.56315789 28.2259928,5.72631579 25.2595668,7.33684211 C21.8436823,9.21578947 20.0458484,10.8263158 20.0458484,12.2578947 C20.0458484,13.4210526 21.1245487,14.4947368 23.1920578,15.4789474 C24.3606498,16.0157895 26.6079422,16.9105263 29.933935,18.1631579 C33.2599278,19.4157895 36.0465704,20.5789474 38.1140794,21.4736842 C40.1815884,22.4578947 42.4288809,23.3526316 44.3166065,25.0526316 C46.2043321,26.7526316 47.0133574,28.5421053 46.7436823,31.2263158 C46.5638989,33.3736842 45.4851986,35.6105263 42.968231,38.0263158 C39.1927798,41.6052632 34.2487365,44.5578947 28.2259928,46.9736842 C22.2032491,49.3 16.9895307,50.4631579 12.6747292,50.4631579 C4.22490975,50.4631579 0,48.0473684 0,43.3052632 C0,38.5631579 2.6967509,34.4473684 7.91046931,31.2263158 C12.2252708,28.2736842 16.8097473,26.8421053 21.4841155,26.8421053 C22.6527076,26.8421053 23.1021661,27.0210526 23.0122744,27.3789474 C22.9223827,27.7368421 22.2032491,27.8263158 20.5851986,28.0052632 C19.0570397,28.1842105 17.1693141,28.5421053 14.7422383,29.5263158 C12.4050542,30.5105263 10.1577617,31.9421053 8.09025271,33.8210526 C5.39350181,36.2368421 4.04512635,38.6526316 4.04512635,41.0684211 C4.04512635,42.5894737 4.76425993,43.9315789 6.20252708,45.0947368 C7.64079422,46.2578947 10.4274368,46.8842105 14.5624549,46.8842105 C18.6974729,46.8842105 22.7425993,46.2578947 26.6978339,45.0052632 C35.3274368,42.2315789 40.7209386,39.1 42.8783394,35.7 C43.7772563,34.4473684 44.0469314,33.4631579 44.1368231,32.3 C44.4064982,29.8842105 42.698556,28.1842105 39.6422383,26.7526316 C36.1364621,25.1421053 31.2823105,23.2631579 24.9898917,21.1157895 C22.5628159,20.3105263 20.4953069,19.2368421 18.7873646,17.8947368 C17.0794224,16.5526316 16.2703971,14.9421053 16.2703971,13.1526316 C16.2703971,11.3631579 17.2592058,9.48421053 19.3267148,7.69473684 C21.3942238,5.90526316 23.8212996,4.47368421 26.6978339,3.4 C32.900361,1.07368421 38.1140794,0 42.3389892,0 C48.2718412,0 51.2382671,1.52105263 51.2382671,4.47368421 C51.2382671,5.63684211 50.8787004,6.97894737 49.8,8.58947368 C48.4516245,10.3789474 45.6649819,11.7210526 45.4851986,11.3631579 Z" id="Shape" fill="#D75A4B"></path>
                    <g id="Group" transform="translate(54.833935, 40.263158)" fill="#D75A4B">
                        <polygon id="Shape" points="0.629241877 0.805263158 1.52815884 0.805263158 1.52815884 5.99473684 7.64079422 5.99473684 7.64079422 6.88947368 0.539350181 6.88947368 0.539350181 0.805263158"></polygon>
                        <polygon id="Shape" points="9.88808664 6.88947368 9.88808664 0.805263158 17.2592058 0.805263158 17.2592058 1.7 10.7870036 1.7 10.7870036 3.4 16.6299639 3.4 16.6299639 4.29473684 10.7870036 4.29473684 10.7870036 6.08421053 17.4389892 6.08421053 17.4389892 6.97894737 9.88808664 6.97894737"></polygon>
                        <path d="M19.6862816,0.805263158 L23.0122744,0.805263158 C26.5180505,0.805263158 28.0462094,2.05789474 28.0462094,3.84736842 C28.0462094,5.63684211 26.6079422,6.88947368 23.0122744,6.88947368 L19.6862816,6.88947368 L19.6862816,0.805263158 Z M20.5851986,1.7 L20.5851986,5.99473684 L23.0122744,5.99473684 C25.8888087,5.99473684 27.0574007,5.18947368 27.0574007,3.84736842 C27.0574007,2.50526316 25.8888087,1.7 23.0122744,1.7 L20.5851986,1.7 Z" id="Shape"></path>
                        <polygon id="Shape" points="35.866787 0.805263158 36.765704 0.805263158 36.765704 5.99473684 42.8783394 5.99473684 42.8783394 6.88947368 35.7768953 6.88947368 35.7768953 0.805263158"></polygon>
                        <polygon id="Shape" points="45.1256318 0.805263158 46.0245487 0.805263158 46.0245487 6.88947368 45.1256318 6.88947368"></polygon>
                        <path d="M52.8563177,3.4 L57.4407942,3.4 L57.4407942,4.02631579 C57.4407942,6.26315789 55.3732852,6.97894737 52.8563177,6.97894737 C49.8,6.97894737 48.2718412,5.63684211 48.2718412,3.84736842 C48.2718412,2.05789474 49.7101083,0.715789474 53.3057762,0.715789474 C55.1036101,0.715789474 56.3620939,1.07368421 56.7216606,1.16315789 L56.5418773,1.96842105 C55.732852,1.78947368 54.7440433,1.52105263 53.3057762,1.52105263 C50.4292419,1.52105263 49.2606498,2.50526316 49.2606498,3.75789474 C49.2606498,5.1 50.5191336,5.99473684 52.9462094,5.99473684 C55.1935018,5.99473684 56.631769,5.36842105 56.631769,4.20526316 L56.631769,4.11578947 L52.9462094,4.11578947 L52.9462094,3.4 L52.8563177,3.4 Z" id="Shape"></path>
                        <polygon id="Shape" points="66.8794224 4.20526316 60.766787 4.20526316 60.766787 6.88947368 59.86787 6.88947368 59.86787 0.805263158 60.766787 0.805263158 60.766787 3.31052632 66.8794224 3.31052632 66.8794224 0.805263158 67.7783394 0.805263158 67.7783394 6.88947368 66.8794224 6.88947368"></polygon>
                        <polygon id="Shape" points="74.1606498 1.7 74.1606498 6.88947368 73.2617329 6.88947368 73.2617329 1.7 69.7559567 1.7 69.7559567 0.805263158 77.666426 0.805263158 77.666426 1.7"></polygon>
                        <polygon id="Shape" points="79.6440433 0.805263158 80.5429603 0.805263158 80.5429603 6.88947368 79.6440433 6.88947368"></polygon>
                        <polygon id="Shape" points="90.1613718 0.805263158 91.0602888 0.805263158 91.0602888 6.88947368 90.1613718 6.88947368 83.8689531 1.96842105 83.8689531 3.22105263 83.8689531 6.88947368 82.9700361 6.88947368 82.9700361 0.805263158 83.8689531 0.805263158 90.1613718 5.81578947 90.1613718 4.29473684"></polygon>
                        <path d="M97.9819495,3.4 L102.566426,3.4 L102.566426,4.02631579 C102.566426,6.26315789 100.498917,6.97894737 97.9819495,6.97894737 C94.9256318,6.97894737 93.3974729,5.63684211 93.3974729,3.84736842 C93.3974729,2.05789474 94.8357401,0.715789474 98.4314079,0.715789474 C100.229242,0.715789474 101.487726,1.07368421 101.847292,1.16315789 L101.667509,1.96842105 C100.858484,1.78947368 99.8696751,1.52105263 98.4314079,1.52105263 C95.5548736,1.52105263 94.3862816,2.50526316 94.3862816,3.75789474 C94.3862816,5.1 95.6447653,5.99473684 98.0718412,5.99473684 C100.319134,5.99473684 101.757401,5.36842105 101.757401,4.20526316 L101.757401,4.11578947 L97.9819495,4.11578947 L97.9819495,3.4 Z" id="Shape"></path>
                        <path d="M117.668231,1.96842105 C117.038989,1.78947368 115.331047,1.52105263 113.982671,1.52105263 C112.993863,1.52105263 111.555596,1.61052632 111.555596,2.50526316 C111.555596,3.4 113.083755,3.4 114.701805,3.4 C116.319856,3.48947368 118.387365,3.57894737 118.387365,5.1 C118.387365,6.71052632 115.870397,6.97894737 114.342238,6.97894737 C112.993863,6.97894737 111.645487,6.8 110.297112,6.35263158 L110.566787,5.54736842 C111.465704,5.81578947 113.263538,6.17368421 114.701805,6.17368421 C115.780505,6.17368421 117.398556,5.99473684 117.398556,5.1 C117.398556,4.29473684 115.960289,4.29473684 114.342238,4.20526316 C112.544404,4.11578947 110.476895,3.93684211 110.476895,2.50526316 C110.476895,0.894736842 112.634296,0.626315789 114.162455,0.626315789 C115.331047,0.626315789 116.679422,0.805263158 117.758123,0.984210526 L117.668231,1.96842105 Z" id="Shape"></path>
                        <path d="M124.949458,0.715789474 C127.915884,0.715789474 129.533935,2.05789474 129.533935,3.84736842 C129.533935,5.63684211 128.005776,6.97894737 124.949458,6.97894737 C121.983032,6.97894737 120.364982,5.63684211 120.364982,3.84736842 C120.364982,2.05789474 121.893141,0.715789474 124.949458,0.715789474 Z M124.949458,6.17368421 C127.376534,6.17368421 128.545126,5.18947368 128.545126,3.93684211 C128.545126,2.59473684 127.376534,1.7 124.949458,1.7 C122.522383,1.7 121.353791,2.68421053 121.353791,3.93684211 C121.353791,5.18947368 122.522383,6.17368421 124.949458,6.17368421 Z" id="Shape"></path>
                        <polygon id="Shape" points="131.691336 0.805263158 132.590253 0.805263158 132.590253 5.99473684 138.702888 5.99473684 138.702888 6.88947368 131.601444 6.88947368 131.601444 0.805263158"></polygon>
                        <path d="M148.231408,0.805263158 L149.130325,0.805263158 L149.130325,4.47368421 C149.130325,6.26315789 147.781949,7.06842105 145.085199,7.06842105 C142.388448,7.06842105 141.040072,6.26315789 141.040072,4.47368421 L141.040072,0.805263158 L141.938989,0.805263158 L141.938989,4.47368421 C141.938989,5.81578947 143.107581,6.17368421 145.085199,6.17368421 C147.062816,6.17368421 148.231408,5.81578947 148.231408,4.47368421 L148.231408,0.805263158 Z" id="Shape"></path>
                        <polygon id="Shape" points="155.602527 1.7 155.602527 6.88947368 154.70361 6.88947368 154.70361 1.7 151.197834 1.7 151.197834 0.805263158 159.108303 0.805263158 159.108303 1.7"></polygon>
                        <polygon id="Shape" points="161.085921 0.805263158 161.984838 0.805263158 161.984838 6.88947368 161.085921 6.88947368"></polygon>
                        <path d="M168.816606,0.715789474 C171.783032,0.715789474 173.401083,2.05789474 173.401083,3.84736842 C173.401083,5.63684211 171.872924,6.97894737 168.816606,6.97894737 C165.850181,6.97894737 164.23213,5.63684211 164.23213,3.84736842 C164.23213,2.05789474 165.760289,0.715789474 168.816606,0.715789474 Z M168.816606,6.17368421 C171.243682,6.17368421 172.412274,5.18947368 172.412274,3.93684211 C172.412274,2.59473684 171.243682,1.7 168.816606,1.7 C166.389531,1.7 165.220939,2.68421053 165.220939,3.93684211 C165.220939,5.18947368 166.389531,6.17368421 168.816606,6.17368421 Z" id="Shape"></path>
                        <polygon id="Shape" points="182.749819 0.805263158 183.648736 0.805263158 183.648736 6.88947368 182.749819 6.88947368 176.457401 1.96842105 176.457401 3.22105263 176.457401 6.88947368 175.558484 6.88947368 175.558484 0.805263158 176.457401 0.805263158 182.749819 5.81578947 182.749819 4.29473684"></polygon>
                        <path d="M193.267148,1.96842105 C192.637906,1.78947368 190.929964,1.52105263 189.581588,1.52105263 C188.59278,1.52105263 187.154513,1.61052632 187.154513,2.50526316 C187.154513,3.4 188.682671,3.4 190.300722,3.4 C191.918773,3.48947368 193.986282,3.57894737 193.986282,5.1 C193.986282,6.71052632 191.469314,6.97894737 189.941155,6.97894737 C188.59278,6.97894737 187.244404,6.8 185.896029,6.35263158 L186.165704,5.54736842 C187.064621,5.81578947 188.862455,6.17368421 190.300722,6.17368421 C191.379422,6.17368421 192.997473,5.99473684 192.997473,5.1 C192.997473,4.29473684 191.559206,4.29473684 189.941155,4.20526316 C188.143321,4.11578947 186.075812,3.93684211 186.075812,2.50526316 C186.075812,0.894736842 188.233213,0.626315789 189.761372,0.626315789 C190.929964,0.626315789 192.278339,0.805263158 193.35704,0.984210526 L193.267148,1.96842105 Z" id="Shape"></path>
                    </g>
                    <g id="Group" transform="translate(54.833935, 13.421053)" fill="#6F7072">
                        <polygon id="Shape" points="0.629241877 22.6368421 0.629241877 0.626315789 27.3270758 0.626315789 27.3270758 3.75789474 3.95523466 3.75789474 3.95523466 9.75263158 25.1696751 9.75263158 25.1696751 12.8842105 3.95523466 12.8842105 3.95523466 19.5052632 27.9563177 19.5052632 27.9563177 22.7263158 0.629241877 22.7263158"></polygon>
                        <path d="M36.5859206,22.6368421 L32.6306859,22.6368421 L47.9122744,0.626315789 L51.7776173,0.626315789 L67.0592058,22.6368421 L63.1039711,22.6368421 L59.4184116,17.6263158 L40.2714801,17.6263158 L36.5859206,22.6368421 Z M56.3620939,12.8842105 L49.8,3.57894737 L43.2379061,12.8842105 L41.9794224,14.5842105 L57.5306859,14.5842105 L56.3620939,12.8842105 Z" id="Shape"></path>
                        <polygon id="Shape" points="88.9028881 18.7 75.598917 5.18947368 75.598917 9.57368421 75.598917 22.6368421 72.2729242 22.6368421 72.2729242 0.626315789 75.598917 0.626315789 89.9815884 15.3 104.36426 0.626315789 107.690253 0.626315789 107.690253 22.6368421 104.36426 22.6368421 104.36426 9.57368421 104.36426 5.18947368 91.0602888 18.7"></polygon>
                        <path d="M116.949097,22.6368421 L112.993863,22.6368421 L128.275451,0.626315789 L132.140794,0.626315789 L147.422383,22.6368421 L143.467148,22.6368421 L139.781588,17.6263158 L120.634657,17.6263158 L116.949097,22.6368421 Z M136.725271,12.8842105 L130.163177,3.57894737 L123.601083,12.8842105 L122.342599,14.5842105 L137.893863,14.5842105 L136.725271,12.8842105 Z" id="Shape"></path>
                        <polygon id="Shape" points="152.636101 0.626315789 155.962094 0.626315789 155.962094 22.6368421 152.636101 22.6368421"></polygon>
                        <path d="M163.782671,0.626315789 L175.828159,0.626315789 C188.59278,0.626315789 193.89639,5.1 193.89639,11.6315789 C193.89639,18.1631579 188.59278,22.6368421 175.828159,22.6368421 L163.782671,22.6368421 L163.782671,0.626315789 Z M167.198556,3.84736842 L167.198556,19.4157895 L175.918051,19.4157895 C186.435379,19.4157895 190.570397,16.4631579 190.570397,11.6315789 C190.570397,6.88947368 186.435379,3.84736842 175.918051,3.84736842 L167.198556,3.84736842 Z" id="Shape"></path>
                    </g>
                </g>
            </g>
        </g>
    </g>
</svg>